<svg width="23" height="32" viewBox="0 0 23 32" fill="none" xmlns="http://www.w3.org/2000/svg">
<line x1="10.3727" y1="22" x2="10.3727" y2="32" stroke="#4F4F4F" stroke-dasharray="2 2"/>
<line x1="10.3727" x2="10.3727" y2="10" stroke="#4F4F4F" stroke-dasharray="2 2"/>
<path d="M10.8112 13.03V13.77H8.91116V20H8.00116V13.77H6.09116V13.03H10.8112ZM14.3213 20.09C13.808 20.09 13.3413 19.9733 12.9213 19.74C12.508 19.5067 12.1813 19.1767 11.9413 18.75C11.708 18.3167 11.5913 17.8167 11.5913 17.25C11.5913 16.69 11.7113 16.1967 11.9513 15.77C12.198 15.3367 12.5313 15.0067 12.9513 14.78C13.3713 14.5467 13.8413 14.43 14.3613 14.43C14.8813 14.43 15.3513 14.5467 15.7713 14.78C16.1913 15.0067 16.5213 15.3333 16.7613 15.76C17.008 16.1867 17.1313 16.6833 17.1313 17.25C17.1313 17.8167 17.0046 18.3167 16.7513 18.75C16.5046 19.1767 16.168 19.5067 15.7413 19.74C15.3146 19.9733 14.8413 20.09 14.3213 20.09ZM14.3213 19.29C14.648 19.29 14.9546 19.2133 15.2413 19.06C15.528 18.9067 15.758 18.6767 15.9313 18.37C16.1113 18.0633 16.2013 17.69 16.2013 17.25C16.2013 16.81 16.1146 16.4367 15.9413 16.13C15.768 15.8233 15.5413 15.5967 15.2613 15.45C14.9813 15.2967 14.678 15.22 14.3513 15.22C14.018 15.22 13.7113 15.2967 13.4313 15.45C13.158 15.5967 12.938 15.8233 12.7713 16.13C12.6046 16.4367 12.5213 16.81 12.5213 17.25C12.5213 17.6967 12.6013 18.0733 12.7613 18.38C12.928 18.6867 13.148 18.9167 13.4213 19.07C13.6946 19.2167 13.9946 19.29 14.3213 19.29Z" fill="#4F4F4F"/>
</svg>
