<svg width="90" height="90" viewBox="0 0 90 90" fill="none" xmlns="http://www.w3.org/2000/svg">
<circle cx="45" cy="45" r="44.85" fill="#D9D9D9" stroke="black" stroke-width="0.3"/>
<path d="M45.6757 20.6757C48.9909 20.6757 52.1703 21.9926 54.5145 24.3368C56.8587 26.681 58.1757 29.8605 58.1757 33.1757C58.1757 36.4909 56.8587 39.6703 54.5145 42.0145C52.1703 44.3587 48.9909 45.6757 45.6757 45.6757C42.3605 45.6757 39.181 44.3587 36.8368 42.0145C34.4926 39.6703 33.1757 36.4909 33.1757 33.1757C33.1757 29.8605 34.4926 26.681 36.8368 24.3368C39.181 21.9926 42.3605 20.6757 45.6757 20.6757ZM45.6757 51.9257C59.4882 51.9257 70.6757 57.5194 70.6757 64.4257V70.6757H20.6757V64.4257C20.6757 57.5194 31.8632 51.9257 45.6757 51.9257Z" fill="black"/>
</svg>
