<svg width="370" height="20" viewBox="0 0 370 20" fill="none" xmlns="http://www.w3.org/2000/svg">
<line y1="9.9" x2="170" y2="9.9" stroke="black" stroke-width="0.2"/>
<line x1="200" y1="9.9" x2="370" y2="9.9" stroke="black" stroke-width="0.2"/>
<path d="M179.545 15.091C178.704 15.091 177.937 14.896 177.244 14.506C176.55 14.1073 176 13.557 175.593 12.855C175.194 12.1443 174.995 11.347 174.995 10.463C174.995 9.579 175.194 8.786 175.593 8.084C176 7.37333 176.55 6.823 177.244 6.433C177.937 6.03433 178.704 5.835 179.545 5.835C180.394 5.835 181.165 6.03433 181.859 6.433C182.552 6.823 183.098 7.369 183.497 8.071C183.895 8.773 184.095 9.57033 184.095 10.463C184.095 11.3557 183.895 12.153 183.497 12.855C183.098 13.557 182.552 14.1073 181.859 14.506C181.165 14.896 180.394 15.091 179.545 15.091ZM179.545 14.064C180.177 14.064 180.745 13.9167 181.248 13.622C181.759 13.3273 182.158 12.907 182.444 12.361C182.738 11.815 182.886 11.1823 182.886 10.463C182.886 9.735 182.738 9.10233 182.444 8.565C182.158 8.019 181.763 7.59867 181.261 7.304C180.758 7.00933 180.186 6.862 179.545 6.862C178.903 6.862 178.331 7.00933 177.829 7.304C177.326 7.59867 176.927 8.019 176.633 8.565C176.347 9.10233 176.204 9.735 176.204 10.463C176.204 11.1823 176.347 11.815 176.633 12.361C176.927 12.907 177.326 13.3273 177.829 13.622C178.34 13.9167 178.912 14.064 179.545 14.064ZM190.427 15L188.269 11.295H186.839V15H185.656V5.939H188.581C189.266 5.939 189.842 6.056 190.31 6.29C190.787 6.524 191.142 6.84033 191.376 7.239C191.61 7.63767 191.727 8.09267 191.727 8.604C191.727 9.228 191.545 9.77833 191.181 10.255C190.826 10.7317 190.289 11.048 189.569 11.204L191.844 15H190.427ZM186.839 10.346H188.581C189.223 10.346 189.704 10.19 190.024 9.878C190.345 9.55733 190.505 9.13267 190.505 8.604C190.505 8.06667 190.345 7.65067 190.024 7.356C189.712 7.06133 189.231 6.914 188.581 6.914H186.839V10.346Z" fill="#4C4C4C"/>
</svg>
